<?xml version="1.0" encoding="UTF-8"?> <svg xmlns="http://www.w3.org/2000/svg" xml:space="preserve" id="Layer_1" x="0" y="0" style="enable-background:new 0 0 64 64" version="1.1" viewBox="0 0 64 64"><style>.st0{fill:#f37228}</style><switch><g><path d="M25.37 35.29c0-3.65 2.97-6.63 6.63-6.63 3.65 0 6.63 2.97 6.63 6.63 0 3.65-2.97 6.63-6.63 6.63-3.65-.01-6.63-2.98-6.63-6.63m32.57-4.4c-.6.1-1.01.67-.9 1.27.24 1.42.36 2.84.36 4.23 0 7.78-3.47 14.81-9.06 19.49a16.435 16.435 0 0 0-11.45-13.24c2.38-1.59 3.95-4.29 3.95-7.35 0-4.87-3.96-8.83-8.83-8.83s-8.83 3.96-8.83 8.83c0 3.07 1.57 5.77 3.95 7.35a16.404 16.404 0 0 0-11.45 13.24C10.07 51.2 6.6 44.18 6.6 36.39c0-1.4.12-2.82.36-4.23.1-.6-.3-1.17-.9-1.27-.62-.1-1.17.3-1.27.91-.26 1.53-.39 3.08-.39 4.6 0 13.56 9.69 25.01 23.03 27.22.06.01.12.02.18.02.53 0 1-.38 1.09-.92.1-.6-.31-1.17-.91-1.27-3.72-.62-7.13-2.02-10.07-4.02.52-7.51 6.68-13.31 14.28-13.31s13.76 5.8 14.29 13.29c-2.95 2-6.35 3.4-10.07 4.02-.6.1-1.01.67-.91 1.27.09.54.56.92 1.09.92.06 0 .12 0 .18-.02 13.35-2.21 23.03-13.66 23.03-27.22 0-1.52-.13-3.07-.39-4.6-.1-.59-.67-1-1.28-.89M36.75 13.67c-.26.25-.38.62-.32.98l.93 5.39-4.84-2.55a1.17 1.17 0 0 0-.51-.13c-.18 0-.35.04-.51.13l-4.84 2.55.93-5.39c.06-.36-.06-.72-.32-.98l-3.92-3.82 5.42-.79c.36-.05.67-.28.83-.6L32 3.55l2.42 4.91c.16.33.47.55.83.6l5.42.79-3.92 3.82zm7.34-4.93c-.13-.4-.48-.69-.89-.75l-7.06-1.02-3.16-6.4c-.37-.75-1.61-.75-1.98 0l-3.16 6.4-7.04 1.01a1.101 1.101 0 0 0-.61 1.88l5.11 4.98-1.21 7.03c-.07.42.1.83.44 1.08.34.25.79.29 1.16.08L32 19.72l6.31 3.32a1.096 1.096 0 0 0 1.16-.08c.34-.25.51-.66.44-1.08l-1.21-7.03 5.11-4.98c.31-.3.41-.73.28-1.13" class="st0"></path><path d="m5.66 17.08 3.89-.57c.36-.05.67-.28.83-.6l1.74-3.53 1.74 3.53c.16.33.47.55.83.6l3.89.57-2.81 2.74c-.26.25-.38.62-.32.98l.66 3.87-3.48-1.83a1.17 1.17 0 0 0-.51-.13c-.18 0-.35.04-.51.13l-3.48 1.83.66-3.87c.06-.36-.06-.72-.32-.98l-2.81-2.74zm-.09 9.42c-.07.42.1.83.44 1.08.34.25.79.28 1.16.08l4.95-2.6 4.95 2.6a1.096 1.096 0 0 0 1.16-.08c.34-.25.51-.66.44-1.08l-.94-5.5 4-3.9a1.101 1.101 0 0 0-.61-1.88l-5.53-.8-2.48-5.02c-.37-.75-1.61-.75-1.98 0l-2.47 5.01-5.53.8a1.101 1.101 0 0 0-.61 1.88l4 3.9-.95 5.51zM55.52 19.82c-.26.25-.38.62-.32.98l.66 3.87-3.48-1.83a1.17 1.17 0 0 0-.51-.13c-.18 0-.35.04-.51.13l-3.48 1.83.66-3.87c.06-.36-.06-.72-.32-.98l-2.81-2.74 3.89-.56c.36-.05.67-.28.83-.6l1.74-3.53 1.74 3.53c.16.33.47.55.83.6l3.89.56-2.81 2.74zm5.35-4.61-5.53-.8-2.47-5.01c-.37-.75-1.61-.75-1.98 0l-2.47 5.01-5.53.8a1.101 1.101 0 0 0-.61 1.88l4 3.9-.95 5.51c-.07.42.1.83.44 1.08.34.25.79.28 1.16.08l4.95-2.6 4.95 2.6a1.096 1.096 0 0 0 1.16-.08c.34-.25.51-.66.44-1.08l-.95-5.5 4-3.9c.3-.29.41-.73.28-1.13-.13-.41-.47-.7-.89-.76M32 61.79c.61 0 1.1.49 1.1 1.1 0 .61-.49 1.1-1.1 1.1-.61 0-1.1-.49-1.1-1.1 0-.6.49-1.1 1.1-1.1" class="st0"></path></g></switch></svg> 